<?xml version="1.0" encoding="utf-8"?>
<!-- Generator: Adobe Illustrator 23.1.0, SVG Export Plug-In . SVG Version: 6.00 Build 0)  -->
<svg version="1.1" id="Layer_1" xmlns="http://www.w3.org/2000/svg" xmlns:xlink="http://www.w3.org/1999/xlink" x="0px" y="0px"
	 viewBox="0 0 308.17 138.41" style="enable-background:new 0 0 308.17 138.41;" xml:space="preserve">
<style type="text/css">
	.st0{fill:#57457F;}
	.st1{clip-path:url(#SVGID_2_);}
	.st2{fill:#FFC200;}
	.st3{fill:#01B496;}
	.st4{fill:#4FCFED;}
	.st5{fill:#F4475B;}
	.st6{fill:#FFFFFF;stroke:#FFFFFF;stroke-width:3.0252;stroke-linecap:round;stroke-linejoin:round;stroke-miterlimit:10;}
	.st7{fill:none;stroke:#FFFFFF;stroke-width:3.0252;stroke-linecap:round;stroke-linejoin:round;stroke-miterlimit:10;}
</style>
<g id="Background">
</g>
<g id="Foreground">
	<g>
		<g>
			<path class="st0" d="M215.03,24.08c2.37,4.84,3.56,10.22,3.56,16.15s-1.19,11.29-3.56,16.08s-5.43,8.6-9.17,11.43
				c-7.57,5.84-15.42,8.76-23.54,8.76h-17.11v15.46c0,2.1-0.07,3.67-0.21,4.72s-0.57,2.26-1.3,3.63c-1.28,2.46-4.84,3.7-10.67,3.7
				c-6.39,0-10.13-1.69-11.22-5.06c-0.55-1.55-0.82-3.92-0.82-7.12V15.87c0-2.1,0.07-3.67,0.21-4.72s0.57-2.26,1.3-3.63
				c1.28-2.46,4.83-3.7,10.67-3.7h29.29c8.03,0,15.83,2.92,23.4,8.76C209.6,15.41,212.65,19.24,215.03,24.08z M190.53,49.26
				c2.65-2.01,3.97-5.02,3.97-9.03s-1.32-7.05-3.97-9.1s-5.38-3.08-8.21-3.08h-17.11v24.22h17.24
				C185.19,52.27,187.88,51.26,190.53,49.26z"/>
			<path class="st0" d="M266.95,10.94L303.9,87.3c1.55,3.1,2.33,5.43,2.33,6.98c0,3.28-2.65,6.25-7.94,8.89
				c-3.1,1.55-5.54,2.33-7.32,2.33s-3.24-0.41-4.38-1.23s-1.96-1.69-2.46-2.6c-0.5-0.91-1.21-2.28-2.12-4.11l-7.12-14.78h-37.91
				l-7.12,14.78c-0.91,1.83-1.62,3.15-2.12,3.97s-1.32,1.67-2.46,2.53c-1.14,0.87-2.6,1.3-4.38,1.3s-4.22-0.78-7.32-2.33
				c-5.29-2.55-7.94-5.47-7.94-8.76c0-1.55,0.77-3.88,2.33-6.98l36.95-76.5c1-2.1,2.53-3.78,4.58-5.06s4.22-1.92,6.5-1.92
				C260.93,3.82,264.57,6.2,266.95,10.94z M255.86,43.78l-9.03,18.75h18.2L255.86,43.78z"/>
		</g>
		<g>
			<g>
				<g>
					<g>
						<g>
							<defs>
								<path id="SVGID_1_" d="M69.71,135.21l-8.41-2.51c-29.83-8.85-49.52-14.67-56.85-29.92C-1.52,90.35,3.54,75.9,15.96,69.92
									c7.02-3.38,15.33-3.35,22.2-0.3c1.91-7.28,7.08-13.78,14.1-17.16c12.42-5.97,26.88-0.91,32.85,11.51
									c7.33,15.25-0.41,34.26-12.1,63.13L69.71,135.21z"/>
							</defs>
							<clipPath id="SVGID_2_">
								<use xlink:href="#SVGID_1_"  style="overflow:visible;"/>
							</clipPath>
							<g class="st1">
								<path class="st2" d="M32.72,149.09l23.71-0.31l-0.7-54.17l-23.71,0.31l-1.8-3.81h-0.03c4.18-0.81,7.32-4.51,7.26-8.92
									c-0.06-4.96-4.13-8.92-9.09-8.86s-8.92,4.13-8.86,9.09c0.06,4.41,3.29,8.03,7.49,8.73h-0.03L25.26,95L1.55,95.31l0.7,54.17
									l23.71-0.31l1.8,3.81h0.03c-4.18,0.81-7.32,4.51-7.26,8.92c0.06,4.96,4.13,8.92,9.09,8.86s8.92-4.13,8.86-9.09
									c-0.06-4.41-3.29-8.03-7.49-8.73h0.03L32.72,149.09z"/>
								<path class="st3" d="M86.19,94.22l23.71-0.31l0,0h-0.07l-0.31-23.71l-3.85-1.73c-0.7,4.2-4.32,7.43-8.73,7.49
									c-4.96,0.06-9.03-3.9-9.09-8.86s3.9-9.03,8.86-9.09c4.41-0.06,8.11,3.08,8.92,7.26v-0.03l3.81-1.8l-0.31-23.7l-23.64,0.31
									l-1.8-3.81h-0.03c4.18-0.81,7.32-4.51,7.26-8.92c-0.06-4.96-4.13-8.92-9.09-8.86c-4.96,0.06-8.92,4.13-8.86,9.09
									c0.06,4.41,3.29,8.03,7.49,8.73h-0.03l-1.7,3.85l-23.7,0.31l0.31,23.7l3.85,1.73c0.7-4.2,4.32-7.43,8.73-7.49
									c4.96-0.06,9.03,3.9,9.09,8.86s-3.9,9.03-8.86,9.09c-4.41,0.06-8.11-3.08-8.92-7.26v0.03l-3.81,1.8l0.31,23.71l0,0l0,0
									l23.71-0.31l1.8,3.81h0.03c-4.18,0.81-7.32,4.51-7.26,8.92c0.06,4.96,4.13,8.92,9.09,8.86s8.92-4.13,8.86-9.09
									c-0.06-4.41-3.29-8.03-7.49-8.73h0.03L86.19,94.22z"/>
								<path class="st4" d="M122.78,111.86c-4.41,0.06-8.03,3.29-8.73,7.49v-0.03l-3.85-1.7l-0.31-23.71l-23.7,0.31l-1.7,3.85
									h-0.03c4.2,0.7,7.43,4.32,7.49,8.73c0.06,4.96-3.9,9.03-8.86,9.09s-9.03-3.9-9.09-8.86c-0.06-4.41,3.08-8.11,7.26-8.92
									h-0.03l-1.8-3.81l-23.71,0.31l0.31,23.71l-3.81,1.8v0.03c-0.81-4.18-4.51-7.32-8.92-7.26c-4.96,0.06-8.92,4.13-8.86,9.09
									c0.06,4.96,4.13,8.92,9.09,8.86c4.41-0.06,8.03-3.29,8.73-7.49v0.03l3.85,1.7l0.31,23.71l54.17-0.7l-0.31-23.71l3.81-1.8
									v-0.03c0.81,4.18,4.51,7.32,8.92,7.26c4.96-0.06,8.92-4.13,8.86-9.09C131.8,115.76,127.73,111.8,122.78,111.86z"/>
								<path class="st5" d="M67.91,58.38c-4.41,0.06-8.03,3.29-8.73,7.49l-3.85-1.73l-0.31-23.71l-23.73,0.31l-1.68,3.8h-0.03
									c4.2,0.7,7.43,4.32,7.49,8.73c0.06,4.96-3.9,9.03-8.86,9.09s-9.03-3.9-9.09-8.86c-0.06-4.41,3.08-8.11,7.26-8.92h-0.03
									l-1.78-3.76L0.85,41.14l0.31,23.71l-3.81,1.8v0.03c-0.81-4.18-4.51-7.32-8.92-7.26c-4.96,0.06-8.92,4.13-8.86,9.09
									s4.13,8.92,9.09,8.86c4.41-0.06,8.03-3.29,8.73-7.49v0.03l3.85,1.7l0.31,23.71L25.26,95l1.7-3.85h0.03
									c-4.2-0.7-7.43-4.32-7.49-8.73c-0.06-4.96,3.9-9.03,8.86-9.09s9.03,3.9,9.09,8.86c0.06,4.41-3.08,8.11-7.26,8.92h0.03
									l1.8,3.81l23.71-0.31L55.42,70.9l3.81-1.8v-0.03c0.81,4.18,4.51,7.32,8.92,7.26c4.96-0.06,8.92-4.13,8.86-9.09
									C76.93,62.28,72.86,58.32,67.91,58.38z"/>
							</g>
						</g>
					</g>
				</g>
				<path class="st6" d="M93.6,85.45c-3.52-6.85-14.51-10.71-15.81-9.1c-1.18,1.46,6.72,7.13,5.41,11.08
					c-1.82,5.47-17.28,5.18-17.62,6.43c-1.12,4.09,14.63,2.25,14.72,3.61c0.09,1.35-12.95,2.3-13.07,3.35
					c-0.45,3.99,13.13,1.94,14.41,2.42c1.37,0.51-10.15,1.79-10.03,3.63c0.12,1.8,12.56,2.5,19.43-2.36
					C97.81,99.74,97.17,92.39,93.6,85.45z"/>
			</g>
			<path class="st0" d="M118.48,17.85C108.54,8.09,96.82,3.21,83.31,3.21c-6.29,0-12.41,1.28-18.34,3.83
				c-5.93,2.55-11.18,6.07-15.74,10.54s-8.21,10.01-10.95,16.63s-4.11,13.71-4.11,21.28c0,4.63,0.55,9.04,1.64,13.24
				c0.8,0.26,1.58,0.56,2.35,0.9c1.91-7.28,7.08-13.78,14.1-17.16c2.1-1.01,4.26-1.7,6.42-2.09c0.8-6.12,3.3-11.24,7.52-15.35
				c5.2-5.06,11.04-7.6,17.52-7.6s12.34,2.51,17.59,7.53c5.24,5.02,7.87,11.68,7.87,19.98s-2.6,14.92-7.8,19.84
				c-1.43,1.35-2.9,2.5-4.43,3.48c-2.89,1.63-5.72,2.79-6.87,2.28c-5.02-2.25-9.88-4.38-10.81-3.22c-1.18,1.46,6.57,6.82,5.25,10.77
				c-1.82,5.47-16.69,4.52-17.03,5.77c-1.12,4.09,15.26,1.4,14.82,2.7c-0.91,2.65-14.01,3.14-13.96,4.2
				c0.16,3.61,10.52,1.65,14.18,1.85c0.82,1.79-4.99,2.56-8.02,3.36c-1.67,0.44-1.67,1.3-1.2,1.39
				c24.18,4.73,43.57-13.76,45.86-16.22c9.49-10.17,14.23-22.49,14.23-36.95C133.4,39.72,128.43,27.61,118.48,17.85z"/>
			<path class="st7" d="M87.98,77.64c0.04-4.93-0.83-9.44-2.86-13.66c-5.97-12.42-20.43-17.49-32.85-11.52
				c-7.02,3.38-12.18,9.88-14.1,17.16c-6.88-3.05-15.19-3.08-22.2,0.3C3.54,75.9-1.53,90.35,4.45,102.78
				c7.33,15.25,27.02,21.07,56.85,29.92l8.41,2.51l3.31-8.1c2.44-6.02,4.7-11.6,6.69-16.82"/>
		</g>
	</g>
</g>
</svg>
