<svg id="deportes" xmlns="http://www.w3.org/2000/svg" xmlns:xlink="http://www.w3.org/1999/xlink" width="40" height="40" viewBox="0 0 40 40">
  <defs>
    <clipPath id="clip-path">
      <circle id="Elipse_51" data-name="Elipse 51" cx="20" cy="20" r="20"/>
    </clipPath>
  </defs>
  <circle id="Elipse_46" data-name="Elipse 46" cx="20" cy="20" r="20" fill="#57457f"/>
  <g id="Grupo_808" data-name="Grupo 808">
    <g id="Grupo_807" data-name="Grupo 807" clip-path="url(#clip-path)">
      <path id="Trazado_1173" data-name="Trazado 1173" d="M27.22,34.09l1.79-6.35a2.751,2.751,0,0,0-.2-2.02l-.01.03c-10.47,1.29-18.53-5.22-18.53-5.22l.01-.04h0a2.8,2.8,0,0,0-1.23,1.63l-1.83,6.5a4.215,4.215,0,0,0,.11,2.58,4.1,4.1,0,0,1-1.26,4.53,4.435,4.435,0,0,0-1.48,2.2l-.74,2.63L.35,53a1.866,1.866,0,0,0,1.29,2.3,25.294,25.294,0,0,0,16.37,4.61h0a1.866,1.866,0,0,0,2.3-1.29l3.51-12.45.69-2.45a4.386,4.386,0,0,0-.12-2.75,4.1,4.1,0,0,1,1.38-4.73A3.975,3.975,0,0,0,27.22,34.09Z" fill="#b3fffd"/>
      <path id="Trazado_1174" data-name="Trazado 1174" d="M21.34,16.72C16.67,15.4,13,13.7,12.58,12.71l-.11-.03-1.74,6.18a27.656,27.656,0,0,0,9.08,4.44,24.074,24.074,0,0,0,9.46.78l1.74-6.18-.11-.03C30.04,18.5,26.01,18.03,21.34,16.72Z" fill="#b3fffd"/>
      <path id="Trazado_1175" data-name="Trazado 1175" d="M20,8.76c-.11.39,1.29,1.13,3.13,1.65s3.42.62,3.53.22S25.37,9.5,23.53,8.98,20.11,8.36,20,8.76Z" fill="#b3fffd"/>
      <g id="Grupo_805" data-name="Grupo 805">
        <path id="Trazado_1176" data-name="Trazado 1176" d="M22.77,11.66a15.19,15.19,0,0,1-1.95-.69l-.54,1.93.21.11a9.676,9.676,0,0,0,3.37.97l.39.04.54-1.93A15.993,15.993,0,0,1,22.77,11.66Z" fill="#b3fffd"/>
      </g>
      <g id="Grupo_806" data-name="Grupo 806">
        <path id="Trazado_1177" data-name="Trazado 1177" d="M23.86,13.98l.39.04.24-.83-3.98-1.12-.24.84.21.11A10.232,10.232,0,0,0,23.86,13.98Z" fill="#b3fffd"/>
        <path id="Trazado_1178" data-name="Trazado 1178" d="M25.55,14.2l-.2.69c-.09.3-1.64.64-3.53.02-2.23-.74-3.03-1.54-2.95-1.84l.2-.69a16.8,16.8,0,0,0-5.49-.54c.71.65,3.41,2.08,8.17,3.42s7.8,1.53,8.75,1.35A16.352,16.352,0,0,0,25.55,14.2Z" fill="#b3fffd"/>
      </g>
    </g>
  </g>
</svg>
