<svg id="manualidades" xmlns="http://www.w3.org/2000/svg" xmlns:xlink="http://www.w3.org/1999/xlink" width="40" height="40" viewBox="0 0 40 40">
  <defs>
    <clipPath id="clip-path">
      <circle id="Elipse_53" data-name="Elipse 53" cx="20" cy="20" r="20" transform="translate(186)"/>
    </clipPath>
  </defs>
  <circle id="Elipse_50" data-name="Elipse 50" cx="20" cy="20" r="20" fill="#57457f"/>
  <g id="Grupo_814" data-name="Grupo 814" transform="translate(-186)">
    <g id="Grupo_813" data-name="Grupo 813" clip-path="url(#clip-path)">
      <g id="Grupo_811" data-name="Grupo 811">
        <path id="Trazado_1181" data-name="Trazado 1181" d="M213.01,16.04l-.16-1.53a1.989,1.989,0,0,0-2.61-1.68l-1.79.6Z" fill="#b3fffd"/>
        <path id="Trazado_1182" data-name="Trazado 1182" d="M206.09,17.22a2.845,2.845,0,0,0,1.53,2.5,2.721,2.721,0,0,0,3.22-.32s1.04,2.55,2.69,2.88l-.31-4.2-6.89-3.94L202.53,16C203.19,17.78,206.09,17.22,206.09,17.22Z" fill="#b3fffd"/>
      </g>
      <g id="Grupo_812" data-name="Grupo 812">
        <path id="Trazado_1183" data-name="Trazado 1183" d="M199.2,44.69l13.39-20.95a3.145,3.145,0,0,1-2.54-2.27A4.039,4.039,0,0,1,204.89,19a2.975,2.975,0,0,1-3.35-1.46L188.1,38.3Z" fill="#b3fffd"/>
        <path id="Trazado_1184" data-name="Trazado 1184" d="M187.2,39.69l-1.33,2.06a5.657,5.657,0,0,0,1.99,8.02l1.3.73a5.656,5.656,0,0,0,7.54-1.89l1.6-2.51Z" fill="#b3fffd"/>
      </g>
    </g>
  </g>
</svg>
