<svg id="otro" xmlns="http://www.w3.org/2000/svg" xmlns:xlink="http://www.w3.org/1999/xlink" width="40" height="40" viewBox="0 0 40 40">
  <defs>
    <clipPath id="clip-path">
      <circle id="Elipse_55" data-name="Elipse 55" cx="20" cy="20" r="20" transform="translate(370)"/>
    </clipPath>
  </defs>
  <circle id="Elipse_47" data-name="Elipse 47" cx="20" cy="20" r="20" fill="#57457f"/>
  <g id="Grupo_820" data-name="Grupo 820" transform="translate(-370)">
    <g id="Grupo_819" data-name="Grupo 819" clip-path="url(#clip-path)">
      <path id="Trazado_1190" data-name="Trazado 1190" d="M389.451,14.194l.589,4.378a2.354,2.354,0,0,0,1.915,2l4.345.794a2.356,2.356,0,0,1,.6,4.443l-3.977,1.907A2.346,2.346,0,0,0,391.6,30.16l.589,4.378a2.357,2.357,0,0,1-4.043,1.939l-3.044-3.2a2.361,2.361,0,0,0-2.725-.5L378.4,34.685a2.357,2.357,0,0,1-3.093-3.249l2.095-3.887a2.368,2.368,0,0,0-.368-2.75l-3.044-3.2a2.357,2.357,0,0,1,2.136-3.944l4.345.794a2.374,2.374,0,0,0,2.5-1.2l2.095-3.887A2.344,2.344,0,0,1,389.451,14.194Z" transform="translate(3.765 -4.217)" fill="#b3fffd"/>
    </g>
  </g>
</svg>
