<svg id="redes_sociales" xmlns="http://www.w3.org/2000/svg" xmlns:xlink="http://www.w3.org/1999/xlink" width="40" height="40" viewBox="0 0 40 40">
  <defs>
    <clipPath id="clip-path">
      <circle id="Elipse_52" data-name="Elipse 52" cx="20" cy="20" r="20" transform="translate(124)"/>
    </clipPath>
  </defs>
  <circle id="Elipse_45" data-name="Elipse 45" cx="20" cy="20" r="20" fill="#57457f"/>
  <g id="Grupo_810" data-name="Grupo 810" transform="translate(-124)">
    <g id="Grupo_809" data-name="Grupo 809" clip-path="url(#clip-path)">
      <path id="Trazado_1179" data-name="Trazado 1179" d="M139.96,26.29a7.4,7.4,0,0,1-.38-5.78c.86-2.53,1.71-6.4.57-9.92h0a1.677,1.677,0,0,1,.45-1.16,1.614,1.614,0,0,1,2.4.22,10.268,10.268,0,0,1,1.94,5.57,1.164,1.164,0,0,0,1.86.81l3.26-2.48a2.485,2.485,0,0,1,2.46.12h0a2.473,2.473,0,0,1,1.01,2.83l-.41,1.27h0a2.6,2.6,0,0,1,1.3,2.7l-.09.53h0a2.457,2.457,0,0,1,.75,2.63l-.16.48h0c2.86,3.09-4.07,6.32-6.08,6.66a8.4,8.4,0,0,1-8.88-4.48Z" fill="#b3fffd"/>
      <path id="Trazado_1180" data-name="Trazado 1180" d="M136.86,24.91,125,34l11,12,9.4-12.36-1.6-.91a16.261,16.261,0,0,1-6.94-7.82Z" fill="#b3fffd"/>
    </g>
  </g>
</svg>
