<svg id="tiempo_libre" xmlns="http://www.w3.org/2000/svg" xmlns:xlink="http://www.w3.org/1999/xlink" width="40" height="40" viewBox="0 0 40 40">
  <defs>
    <clipPath id="clip-path">
      <circle id="Elipse_54" data-name="Elipse 54" cx="20" cy="20" r="20" transform="translate(62)"/>
    </clipPath>
  </defs>
  <circle id="Elipse_44" data-name="Elipse 44" cx="20" cy="20" r="20" fill="#57457f"/>
  <g id="Grupo_818" data-name="Grupo 818" transform="translate(-62)">
    <g id="Grupo_817" data-name="Grupo 817" clip-path="url(#clip-path)">
      <g id="Grupo_815" data-name="Grupo 815">
        <path id="Trazado_1185" data-name="Trazado 1185" d="M76.55,25.52,73.91,46.13c0,.02-.01.04-.01.06l4.14.98c0-.02.01-.04.01-.06l6.87-19.6Z" fill="#b3fffd"/>
        <path id="Trazado_1186" data-name="Trazado 1186" d="M86.09,27.78c0,.02-.01.04-.01.06l-6.87,19.6,2.03.48a2.06,2.06,0,0,0,2.33-1.12l8.31-17.65Z" fill="#b3fffd"/>
        <path id="Trazado_1187" data-name="Trazado 1187" d="M75.36,25.3c0-.02.01-.04.01-.06l-5.78-1.37-.49,19.5a2.061,2.061,0,0,0,1.58,2.05l2.03.48Z" fill="#b3fffd"/>
      </g>
      <g id="Grupo_816" data-name="Grupo 816">
        <path id="Trazado_1188" data-name="Trazado 1188" d="M90.82,13.07a1.064,1.064,0,0,0,.65-.24c.01.02.03.03.04.05a1.479,1.479,0,0,0,1.03.64,1.278,1.278,0,0,0,1.19-1.35.9.9,0,0,0-.38-.54.991.991,0,0,0,.16-.72c-.11-.54-.79-.76-.9-.79-.73-.23-1.69.05-1.81.54a.45.45,0,0,0,0,.2c-.67-.09-1.4.18-1.51.61-.08.33.23.68.49.96A1.512,1.512,0,0,0,90.82,13.07Z" fill="#b3fffd"/>
        <path id="Trazado_1189" data-name="Trazado 1189" d="M95.05,20.55c-.11-.32-.57-.44-.94-.53a2.477,2.477,0,0,0-.73-.1,1.019,1.019,0,0,0,.03-.73,1.2,1.2,0,0,0-.45-.53l.03-.06a1.473,1.473,0,0,0,.24-1.19,1.274,1.274,0,0,0-1.69-.64.858.858,0,0,0-.37.55.961.961,0,0,0-.69.09c.34-.38.53-.85.37-1.14s-.63-.35-1-.4a3.351,3.351,0,0,0-.71-.01,3.16,3.16,0,0,0-1.06-.96,1.522,1.522,0,0,0,.42-.87,1.525,1.525,0,0,0-.04-1.22,1.114,1.114,0,0,0-.56-.41c.01-.02.01-.04.02-.06a1.525,1.525,0,0,0-.04-1.22,1.281,1.281,0,0,0-1.79-.24.95.95,0,0,0-.24.62,1.057,1.057,0,0,0-.4.08c-.09-.45-.32-.83-.62-.89a.67.67,0,0,0-.2,0c.07-.67-.22-1.39-.66-1.49-.34-.07-.67.25-.95.52a1.471,1.471,0,0,0-.61,1.05,1.183,1.183,0,0,0,.26.65l-.05.05-.23.23a1.492,1.492,0,0,0-.8-.58c-.73-.23-1.69.05-1.81.54a.45.45,0,0,0,0,.2c-.67-.09-1.4.18-1.51.61v.05a1.576,1.576,0,0,0-.68-.4c-.73-.23-1.69.05-1.81.54a.45.45,0,0,0,0,.2c-.67-.09-1.4.18-1.51.61a.869.869,0,0,0,.28.72,3.087,3.087,0,0,0-.43.14c-.22-.59-.72-1.07-1.13-1-.34.06-.53.49-.68.84a1.466,1.466,0,0,0-.16,1.21,1.028,1.028,0,0,0,.35.4c-.03.06-.08.12-.11.18a2.722,2.722,0,0,0-.56-.09,1.5,1.5,0,0,0-1.2.21,1.108,1.108,0,0,0-.33.61c-.02,0-.04-.01-.07-.01a1.5,1.5,0,0,0-1.2.21,1.267,1.267,0,0,0,.01,1.8.744.744,0,0,0,.4.14,3.533,3.533,0,0,0-.15.46,4.215,4.215,0,0,0,.56,2.37l22.29,5.27s1.34-.91,1.56-1.87a3.268,3.268,0,0,0-.11-1.84c.44-.33.74-.81.62-1.15a.452.452,0,0,0-.11-.17C94.73,21.59,95.2,20.97,95.05,20.55Zm-4.74-3Zm-5.22-4.42c0,.01.01.01.01.02s-.01-.01-.02-.01C85.09,13.14,85.09,13.14,85.09,13.13Z" fill="#b3fffd"/>
      </g>
    </g>
  </g>
</svg>
